<svg xmlns="http://www.w3.org/2000/svg" style="display:none">
<symbol id="icon-logo" viewBox="0 0 32 32">
 
  <path
    d="M6 24V8h3.2l3.4 6.6L16 8h3.2v16h-2.8v-9.6l-3 5.8h-.9l-3-5.8V24H6z"
    fill="currentColor"
  />

  
  <path
    d="M20 8h4.8c2.4 0 4 1.4 4 3.4 0 1.4-.8 2.4-2 2.9 1.6.4 2.6 1.7 2.6 3.4 0 2.4-1.9 3.9-4.6 3.9H20V8zm3 5.6h1.9c1.1 0 1.8-.5 1.8-1.4s-.7-1.4-1.8-1.4H23v2.8zm0 6.6h2.2c1.3 0 2.1-.6 2.1-1.6s-.8-1.6-2.1-1.6H23v3.2z"
    fill="currentColor"
  />
</symbol>
<symbol id="icon-chevron-down" viewBox="0 0 24 24">
  <path
    d="M6 9l6 6 6-6"
    fill="none"
    stroke="currentColor"
    stroke-width="2"
    stroke-linecap="round"
    stroke-linejoin="round"
  />
</symbol>

<symbol id="icon-calendar" viewBox="0 0 24 24">
  <path
    d="M7 2a1 1 0 0 1 1 1v1h8V3a1 1 0 1 1 2 0v1h1.5A2.5 2.5 0 0 1 22 6.5v13A2.5 2.5 0 0 1 19.5 22h-15A2.5 2.5 0 0 1 2 19.5v-13A2.5 2.5 0 0 1 4.5 4H6V3a1 1 0 0 1 1-1Zm12.5 8h-15v9.5c0 .276.224.5.5.5h14c.276 0 .5-.224.5-.5V10ZM4.5 6a.5.5 0 0 0-.5.5V8h16V6.5a.5.5 0 0 0-.5-.5H18v1a1 1 0 1 1-2 0V6H8v1a1 1 0 1 1-2 0V6H4.5Z"
    fill="currentColor"
  />
</symbol>

<symbol id="icon-close" viewBox="0 0 24 24">
  <path
    d="M6 6L18 18M18 6L6 18"
    fill="none"
    stroke="currentColor"
    stroke-width="2"
    stroke-linecap="round"
  />
</symbol>



</svg>



